<?xml version="1.0" encoding="iso-8859-1"?>
<!-- Generator: Adobe Illustrator 19.0.0, SVG Export Plug-In . SVG Version: 6.00 Build 0)  -->
<svg version="1.1" id="Layer_1" xmlns="http://www.w3.org/2000/svg" xmlns:xlink="http://www.w3.org/1999/xlink" x="0px" y="0px"
	 viewBox="0 0 512 512" style="enable-background:new 0 0 512 512;" xml:space="preserve">
<g>
	<g>
		<path d="M464.418,179.456L303.77,156.51L281.25,21.393C279.194,9.045,268.518,0,256,0c-12.518,0-23.194,9.045-25.25,21.393
			L208.23,156.51L47.582,179.456C34.97,181.257,25.6,192.06,25.6,204.8c0,12.74,9.37,23.544,21.982,25.344l159.343,22.767
			l23.603,236.041C231.834,502.033,242.85,512,256,512c13.15,0,24.166-9.967,25.472-23.057l23.603-236.041l159.343-22.767
			C477.03,228.344,486.4,217.54,486.4,204.8C486.4,192.06,477.03,181.257,464.418,179.456z M281.6,230.4l-25.6,256l-25.6-256
			L51.2,204.8l179.2-25.6L256,25.6l25.6,153.6l179.2,25.6L281.6,230.4z"/>
	</g>
</g>
<g>
	<g>
		<path d="M188.254,118.955l-51.2-51.2c-5.001-5.001-13.099-5.001-18.099,0c-5,5-5,13.099,0,18.099l51.191,51.2
			c2.5,2.5,5.777,3.746,9.054,3.746s6.554-1.246,9.054-3.746C193.254,132.053,193.254,123.955,188.254,118.955z"/>
	</g>
</g>
<g>
	<g>
		<path d="M393.054,323.755l-51.2-51.209c-5-5.001-13.099-5.001-18.099,0c-5,5.001-5,13.099,0,18.099l51.2,51.2
			c2.492,2.509,5.768,3.755,9.045,3.755s6.554-1.246,9.054-3.746C398.054,336.853,398.054,328.755,393.054,323.755z"/>
	</g>
</g>
<g>
	<g>
		<path d="M393.054,67.755c-5.001-5.001-13.099-5.001-18.099,0l-51.2,51.2c-5,5.001-5,13.099,0,18.099
			c2.492,2.5,5.769,3.746,9.045,3.746c3.277,0,6.554-1.246,9.054-3.746l51.2-51.2C398.054,80.853,398.054,72.755,393.054,67.755z"/>
	</g>
</g>
<g>
	<g>
		<path d="M188.254,272.555c-5.001-5.001-13.107-5.001-18.108-0.009l-51.2,51.2c-5,5-5,13.099,0,18.099
			c2.5,2.509,5.777,3.755,9.054,3.755c3.277,0,6.554-1.246,9.054-3.746l51.2-51.2C193.254,285.653,193.254,277.555,188.254,272.555z
			"/>
	</g>
</g>
<g>
</g>
<g>
</g>
<g>
</g>
<g>
</g>
<g>
</g>
<g>
</g>
<g>
</g>
<g>
</g>
<g>
</g>
<g>
</g>
<g>
</g>
<g>
</g>
<g>
</g>
<g>
</g>
<g>
</g>
</svg>
